<svg width="21" height="14" viewBox="0 0 21 14" fill="none" xmlns="http://www.w3.org/2000/svg">
<path d="M20.0314 0.00228959C20.2314 3.29878 18.9751 7.12295 16.8265 9.61693C16.743 9.71741 16.6595 9.81789 16.5734 9.92141C15.0984 11.6371 13.063 12.8963 10.7816 13.1366C10.6219 13.1477 10.4622 13.158 10.3023 13.1652C10.1421 12.6845 10.3428 12.4029 10.5527 11.9705C10.614 11.8426 10.614 11.8426 10.6766 11.7121C11.7466 9.53459 13.1126 7.48302 14.6518 5.61083C14.9205 5.26874 15.1867 4.92469 15.453 4.58069C12.3514 6.54115 10.7416 9.35786 9.50107 12.7074C9.42552 12.6696 9.34998 12.6318 9.27215 12.5929C8.776 10.0129 9.40795 6.99144 10.8746 4.80961C11.618 3.78829 12.483 2.91879 13.5072 2.17703C13.6508 2.0719 13.6508 2.0719 13.7973 1.96465C15.5384 0.775089 17.9174 -0.049272 20.0314 0.00228959Z" fill="#4E953B"/>
<path d="M6.27744 6.49074C7.58845 7.89167 8.15431 9.60331 8.13474 11.4912C8.13422 11.5864 8.1337 11.6815 8.13317 11.7796C8.13183 12.0125 8.12978 12.2455 8.12758 12.4784C8.01427 12.5351 8.01427 12.5351 7.89866 12.5929C7.86771 12.5285 7.83677 12.464 7.80488 12.3977C6.86307 10.4608 5.71584 8.39366 3.66364 7.44219C3.73269 7.51124 3.80174 7.58029 3.87289 7.65143C4.14652 7.92506 4.42015 8.19869 4.69378 8.47233C4.77803 8.55436 4.86228 8.6364 4.94908 8.72092C5.15669 8.93541 5.25486 9.11988 5.38054 9.38801C5.44192 9.46827 5.5033 9.54854 5.56654 9.63123C5.72392 9.84585 5.72392 9.84585 5.72392 10.0748C5.79946 10.0748 5.87501 10.0748 5.95284 10.0748C5.99061 10.1881 6.02838 10.3014 6.0673 10.4181C6.14284 10.4937 6.21839 10.5692 6.29622 10.6471C6.46986 10.9585 6.61673 11.2831 6.76837 11.6057C6.81101 11.6936 6.85365 11.7815 6.89758 11.8721C6.93786 11.9574 6.97814 12.0427 7.01964 12.1306C7.075 12.2471 7.075 12.2471 7.13148 12.3659C7.2119 12.5929 7.2119 12.5929 7.2119 13.0507C5.31313 12.9183 3.57265 11.7124 2.34735 10.3225C1.00451 8.69851 -0.0352583 6.6005 0.000915865 4.46622C2.31033 4.11746 4.57707 4.90453 6.27744 6.49074Z" fill="#50963B"/>
</svg>
