<svg width="73" height="52" viewBox="0 0 73 52" fill="none" xmlns="http://www.w3.org/2000/svg">
<path d="M46.0238 0.00228959C46.2238 3.29878 44.9675 7.12295 42.8189 9.61693C42.7354 9.71741 42.6519 9.81789 42.5659 9.92141C41.0909 11.6371 39.0555 12.8963 36.774 13.1366C36.6144 13.1477 36.4546 13.158 36.2947 13.1652C36.1345 12.6845 36.3352 12.4029 36.5451 11.9705C36.6064 11.8426 36.6064 11.8426 36.669 11.7121C37.739 9.53459 39.1051 7.48302 40.6442 5.61083C40.913 5.26874 41.1791 4.92469 41.4454 4.58069C38.3438 6.54115 36.7341 9.35786 35.4935 12.7074C35.418 12.6696 35.3424 12.6318 35.2646 12.5929C34.7684 10.0129 35.4004 6.99144 36.867 4.80961C37.6105 3.78829 38.4754 2.91879 39.4996 2.17703C39.6432 2.0719 39.6432 2.0719 39.7898 1.96465C41.5308 0.775089 43.9098 -0.049272 46.0238 0.00228959Z" fill="#4E953B"/>
<path d="M32.2699 6.49074C33.5809 7.89167 34.1467 9.60331 34.1272 11.4912C34.1267 11.5864 34.1261 11.6815 34.1256 11.7796C34.1243 12.0125 34.1222 12.2455 34.12 12.4784C34.0067 12.5351 34.0067 12.5351 33.8911 12.5929C33.8601 12.5285 33.8292 12.464 33.7973 12.3977C32.8555 10.4608 31.7083 8.39366 29.6561 7.44219C29.7251 7.51124 29.7942 7.58029 29.8653 7.65143C30.1389 7.92506 30.4126 8.19869 30.6862 8.47233C30.7705 8.55436 30.8547 8.6364 30.9415 8.72092C31.1491 8.93541 31.2473 9.11988 31.373 9.38801C31.4344 9.46827 31.4957 9.54854 31.559 9.63123C31.7164 9.84585 31.7164 9.84585 31.7164 10.0748C31.7919 10.0748 31.8674 10.0748 31.9453 10.0748C31.983 10.1881 32.0208 10.3014 32.0597 10.4181C32.1353 10.4937 32.2108 10.5692 32.2887 10.6471C32.4623 10.9585 32.6092 11.2831 32.7608 11.6057C32.8034 11.6936 32.8461 11.7815 32.89 11.8721C32.9303 11.9574 32.9706 12.0427 33.0121 12.1306C33.0674 12.2471 33.0674 12.2471 33.1239 12.3659C33.2043 12.5929 33.2043 12.5929 33.2043 13.0507C31.3056 12.9183 29.5651 11.7124 28.3398 10.3225C26.9969 8.69851 25.9572 6.6005 25.9933 4.46622C28.3028 4.11746 30.5695 4.90453 32.2699 6.49074Z" fill="#50963B"/>
<path d="M11.3682 22.7602C11.6475 23.0614 11.8091 23.3293 11.9562 23.7134C11.936 24.2072 11.7323 24.5598 11.484 24.9796C11.4085 24.9796 11.3329 24.9796 11.2551 24.9796C11.2551 25.0552 11.2551 25.1307 11.2551 25.2085C11.4322 25.1979 11.4322 25.1979 11.6128 25.1871C13.1733 25.1954 14.5166 25.7199 15.6475 26.7824C16.8295 28.0393 17.1665 29.6009 17.1248 31.2955C16.9358 33.8621 15.8059 36.0053 14.1166 37.9136C14.0465 37.9933 13.9764 38.0729 13.9042 38.155C12.1959 39.9763 9.77762 41.0967 7.29237 41.2602C5.63887 41.2924 4.19842 40.9949 2.78506 40.0883C2.71158 40.0451 2.6381 40.0019 2.5624 39.9573C1.29973 39.1561 0.520149 37.6586 0.166783 36.2468C-0.412514 33.0936 0.566434 29.9738 2.34152 27.3699C3.06176 26.3795 3.87262 25.3785 4.83103 24.6076C5.11583 24.378 5.28486 24.159 5.46772 23.8422C5.97782 22.9732 6.75588 22.4256 7.70684 22.1181C8.89148 21.8697 10.3955 21.9728 11.3682 22.7602ZM7.02008 29.3291C6.97039 29.385 6.92071 29.4408 6.86952 29.4984C5.44708 31.1005 4.40369 33.1302 4.46932 35.3159C4.54617 36.0423 4.84611 36.5327 5.41764 36.9979C5.96919 37.2612 6.53268 37.2813 7.13454 37.2268C7.17231 37.1891 7.21008 37.1513 7.249 37.1124C7.3483 37.1174 7.4476 37.1224 7.54991 37.1276C8.42843 37.093 9.50641 36.4483 10.1436 35.8435C11.428 34.4066 12.5066 32.8033 12.3997 30.7813C12.293 30.0987 12.0273 29.501 11.5117 29.0313C10.9361 28.6328 10.3415 28.4864 9.65266 28.4134C9.52297 28.3985 9.39328 28.3836 9.25965 28.3683C8.18443 28.3 7.7031 28.5121 7.02008 29.3291Z" fill="#1B6946"/>
<path d="M59.0279 19.3925C59.6763 20.0872 59.737 20.8096 59.7106 21.7273C59.5459 23.3821 58.6288 24.9466 57.7585 26.3343C57.6189 26.5694 57.5119 26.8034 57.404 27.0542C56.8882 28.0984 55.7919 28.6891 54.7499 29.1002C53.9945 29.3542 53.2287 29.5743 52.4607 29.7869C52.4405 29.8828 52.4203 29.9787 52.3995 30.0775C52.3245 30.4329 52.2491 30.7883 52.1736 31.1436C52.141 31.2975 52.1084 31.4513 52.076 31.6053C52.0294 31.8264 51.9824 32.0474 51.9354 32.2684C51.9072 32.4014 51.879 32.5345 51.85 32.6716C51.774 32.9918 51.774 32.9918 51.6595 33.2207C54.4937 32.5312 57.0958 31.4644 59.3918 29.63C60.3626 28.8662 60.3626 28.8662 60.9093 28.8784C61.1597 28.9857 61.1597 28.9857 61.3886 29.3291C61.4188 30.8356 60.167 32.4029 59.2139 33.4496C59.1478 33.525 59.0817 33.6004 59.0136 33.6781C57.2541 35.5672 54.8593 36.9619 52.3664 37.5926C52.0174 37.6672 52.0174 37.6672 51.774 37.7991C51.5061 37.7668 51.2389 37.729 50.9728 37.6847C50.935 37.7602 50.8972 37.8357 50.8583 37.9136C50.8583 37.838 50.8583 37.7625 50.8583 37.6847C50.7119 37.6776 50.5656 37.6705 50.4148 37.6632C49.5305 37.5589 48.8156 37.212 48.24 36.5258C47.1257 34.941 47.2526 33.2092 47.539 31.3894C47.6332 30.8996 47.7384 30.4125 47.8556 29.9278C48.0084 29.2739 48.0036 28.8848 47.6963 28.2703C47.5018 27.7399 47.5023 27.3525 47.6534 26.811C47.901 26.4148 48.0108 26.2721 48.4546 26.1242C48.6193 26.1113 48.7844 26.1039 48.9496 26.1C51.7716 26.0839 51.7716 26.0839 54.1915 24.8522C54.5569 24.4002 54.8812 23.9207 55.0933 23.3772C55.0555 23.3016 55.0178 23.2261 54.9789 23.1482C54.0653 23.1776 53.2245 23.2833 52.3391 23.4988C50.2159 24.0004 50.2159 24.0004 49.3131 23.4702C48.4888 22.8537 47.8649 22.1453 47.6668 21.1166C47.6441 20.6801 47.7752 20.4322 47.9968 20.0578C48.5813 19.6682 49.1959 19.7062 49.8782 19.7359C51.2605 19.7454 52.61 19.4414 53.9641 19.19C57.7755 18.4839 57.7755 18.4839 59.0279 19.3925Z" fill="#1B6945"/>
<path d="M25.0605 18.7496C25.8284 18.847 26.5532 19.1111 27.2795 19.3711C27.3866 19.4083 27.4937 19.4454 27.6041 19.4838C27.9795 19.6599 28.1109 19.9319 28.3096 20.2868C28.5633 21.1055 28.4227 21.9331 28.2171 22.7454C28.1945 22.839 28.1718 22.9325 28.1485 23.0289C28.0722 23.3432 27.9942 23.6571 27.9162 23.9709C27.8606 24.1982 27.8051 24.4254 27.7497 24.6527C27.6255 25.1614 27.5008 25.6699 27.3757 26.1784C27.1643 27.0404 26.9571 27.9033 26.7503 28.7664C23.8293 40.9544 23.8293 40.9544 22.0143 44.6668C21.9769 44.7448 21.9395 44.8228 21.9009 44.9032C21.643 45.4399 21.3752 45.9707 21.0986 46.4981C21.0447 46.6016 21.0447 46.6016 20.9897 46.7072C20.56 47.5231 20.0824 48.2678 19.5177 48.9948C19.4641 49.0641 19.4105 49.1334 19.3552 49.2047C18.9676 49.6884 18.9676 49.6884 18.5805 49.8175C18.5805 49.893 18.5805 49.9685 18.5805 50.0464C16.3279 51.4129 16.3279 51.4129 15.5639 51.2469C15.2962 51.1346 15.119 51.0582 14.9178 50.8476C14.8069 50.527 14.8069 50.527 14.8033 50.1608C14.9862 49.8479 14.9862 49.8479 15.2683 49.5027C19.1923 44.3867 20.7663 37.3206 22.2433 31.1605C22.158 31.2082 22.0728 31.256 21.9849 31.3052C21.8725 31.3675 21.76 31.4298 21.6441 31.494C21.5329 31.5559 21.4217 31.6178 21.3071 31.6816C20.6576 32.0147 19.9987 32.1545 19.2673 32.0761C18.6713 31.8685 18.219 31.6002 17.8938 31.046C17.552 30.2216 17.4725 29.5788 17.7507 28.721C18.035 28.3372 18.3966 28.1996 18.8542 28.1C18.9999 28.0783 19.1457 28.0566 19.2959 28.0343C20.3268 27.8648 21.2682 27.5198 22.2433 27.1544C22.472 27.0774 22.7009 27.001 22.93 26.9254C22.9424 26.8296 22.9548 26.7338 22.9675 26.635C23.0655 25.9104 23.1786 25.1981 23.3315 24.4829C23.659 22.9511 23.9304 21.5059 23.8504 19.9282C23.8458 19.8288 23.8411 19.7293 23.8363 19.6268C23.8301 19.5409 23.824 19.455 23.8176 19.3665C23.8457 19.1422 23.8457 19.1422 24.0027 18.9435C24.3308 18.6887 24.659 18.74 25.0605 18.7496Z" fill="#1B6A46"/>
<path d="M39.1833 35.3954C39.2967 35.5088 39.2967 35.5088 39.4123 35.6244C39.649 35.6992 39.8878 35.7675 40.1276 35.8318C40.9371 36.0755 41.4089 36.3191 41.8589 37.0551C42.1794 37.7677 42.171 38.6009 41.9653 39.3466C41.8562 39.6082 41.7319 39.8448 41.587 40.0883C41.5122 40.2169 41.5122 40.2169 41.4359 40.3481C40.0774 42.5268 37.7664 43.5872 35.3489 44.1659C34.9626 44.2645 34.8562 44.3004 34.5692 44.5952C34.4654 44.8972 34.4654 44.8972 34.562 45.2104C34.7031 45.5035 34.7031 45.5035 35.0628 45.5824C38.651 45.8691 42.1983 44.389 45.0208 42.263C45.1883 42.1436 45.3575 42.0265 45.5287 41.9125C45.597 41.8663 45.6654 41.8202 45.7357 41.7726C45.9365 41.6907 45.9365 41.6907 46.1766 41.7127C46.3943 41.8052 46.3943 41.8052 46.6233 42.1486C46.6233 43.7331 45.4178 45.1771 44.3546 46.2633C42.0709 48.4951 38.8811 49.7332 35.6992 49.7314C34.275 49.7101 32.8757 49.277 31.8114 48.2981C30.8403 47.2461 30.4419 46.0326 30.4589 44.6131C30.5659 43.3966 30.9762 42.3165 31.8579 41.4618C32.2135 41.2408 32.4818 41.2282 32.888 41.2401C34.5165 41.2642 36.1051 40.5257 37.352 39.516C37.4275 39.516 37.5031 39.516 37.5809 39.516C37.6564 39.2894 37.732 39.0627 37.8098 38.8292C37.668 38.87 37.668 38.87 37.5233 38.9115C37.1672 39.0132 36.811 39.114 36.4545 39.2142C36.3013 39.2575 36.1481 39.3011 35.995 39.3451C33.6602 40.0153 33.6602 40.0153 32.9023 39.7235C32.3288 39.3908 31.9699 38.9969 31.6884 38.3969C31.5941 37.9931 31.7125 37.7227 31.87 37.3502C32.5512 36.6029 33.7691 36.464 34.7155 36.235C34.9632 36.1751 35.2104 36.1137 35.4576 36.052C36.4562 35.8058 37.3987 35.6074 38.4322 35.6172C38.6444 35.6188 38.6444 35.6188 38.861 35.6203C39.0206 35.6223 39.0206 35.6223 39.1833 35.6244C39.1833 35.5488 39.1833 35.4733 39.1833 35.3954Z" fill="#1B6A45"/>
<path d="M70.7743 13.9915C71.6314 14.8258 71.9856 15.7558 72.0367 16.9393C72.0419 17.4449 71.9848 17.9312 71.9087 18.4304C71.8863 18.5774 71.8863 18.5774 71.8634 18.7273C71.6391 20.1154 71.2901 21.4766 70.9532 22.8407C70.8818 23.1326 70.8104 23.4246 70.739 23.7165C70.5584 24.454 70.3761 25.1911 70.1931 25.9281C70.0917 26.3367 69.9905 26.7454 69.8895 27.1542C69.7374 27.7682 69.584 28.3818 69.4295 28.9952C69.3732 29.2187 69.3172 29.4423 69.2614 29.666C67.942 34.9485 67.942 34.9485 65.8239 36.3112C65.6822 36.3899 65.5392 36.4666 65.3947 36.5401C65.305 36.5897 65.2153 36.6393 65.1229 36.6904C64.5103 36.8508 63.9027 36.868 63.3201 36.6117C63.2139 36.5196 63.2139 36.5196 63.1055 36.4257C63.1055 36.3501 63.1055 36.2746 63.1055 36.1967C62.9544 36.2345 62.8033 36.2723 62.6477 36.3112C62.6855 36.2357 62.7232 36.1601 62.7621 36.0823C62.8377 36.0823 62.9132 36.0823 62.9911 36.0823C63.0336 35.9501 63.076 35.8179 63.1198 35.6817C63.2304 35.3453 63.3487 35.017 63.4822 34.6889C64.0419 33.2979 64.3632 31.8705 64.6865 30.4094C64.7429 30.1598 64.7995 29.9102 64.8562 29.6607C64.9102 29.4213 64.964 29.1818 65.0178 28.9424C65.0426 28.8321 65.0674 28.7218 65.0929 28.6082C65.2166 28.0485 65.3232 27.4942 65.3947 26.9255C65.2771 26.9818 65.2771 26.9818 65.1571 27.0392C64.7982 27.2101 64.4383 27.379 64.0784 27.5479C63.9551 27.6069 63.8317 27.666 63.7046 27.7269C62.0957 28.4774 62.0957 28.4774 61.1955 28.1845C60.6461 27.9737 60.3806 27.68 60.1296 27.1544C59.8191 26.3827 59.5853 25.57 59.9221 24.7722C60.4053 24.1891 61.0025 24.093 61.7105 23.9638C63.0972 23.6914 64.4134 23.2751 65.7336 22.7705C65.967 22.6905 65.967 22.6905 66.1959 22.6905C66.3353 21.9723 66.4737 21.254 66.6104 20.5354C66.7058 20.0349 66.8045 19.5355 66.9082 19.0367C67.2371 17.4172 67.4935 15.7256 67.0234 14.1101C66.9897 13.8104 67.0635 13.669 67.2261 13.4192C68.4058 12.8573 69.7608 13.3077 70.7743 13.9915Z" fill="#1B6945"/>
<path d="M64.5908 37.4808C65.5564 38.0497 66.2892 38.9292 66.5966 40.0204C67.0317 42.2776 66.4096 44.3543 65.185 46.2612C64.8013 46.8047 64.3759 47.2864 63.9068 47.7572C63.8283 47.8383 63.7498 47.9195 63.6689 48.0031C62.2938 49.3323 60.387 49.9661 58.5041 49.9679C56.8719 49.9387 55.6156 49.3555 54.4853 48.1936C53.2978 46.7946 53.2909 45.1415 53.3764 43.4077C53.5575 41.791 54.4854 40.2494 55.5512 39.0582C55.6325 38.9607 55.7138 38.8632 55.7975 38.7627C58.1969 35.95 61.4486 35.8694 64.5908 37.4808ZM59.3283 40.3173C59.2906 40.4306 59.2528 40.5439 59.2139 40.6607C59.1094 40.7118 59.1094 40.7118 59.0029 40.7639C58.2372 41.1537 57.7784 42.2866 57.497 43.0643C57.2754 43.7795 57.2755 44.6051 57.5328 45.3035C57.8068 45.6993 57.9509 45.8864 58.4127 46.0403C59.4661 46.1441 60.0867 45.9299 60.9379 45.3392C61.8646 44.5161 62.5507 43.2689 62.6696 42.036C62.7064 41.347 62.585 40.7767 62.1899 40.2028C61.7722 39.8065 61.3882 39.6504 60.8235 39.5518C60.2378 39.589 59.7548 39.9337 59.3283 40.3173Z" fill="#1B6A46"/>
<path d="M36.2074 17.5397C37.247 17.8483 38.3077 18.2473 38.8901 19.2137C39.29 20.0775 39.3008 20.9324 39.0117 21.8391C38.7475 22.5112 38.3199 22.9903 37.8099 23.4917C37.8786 23.5182 37.9474 23.5447 38.0182 23.5721C38.3282 23.6923 38.6378 23.8137 38.9473 23.9352C39.0555 23.9769 39.1638 24.0187 39.2753 24.0617C39.4296 24.1226 39.4296 24.1226 39.5871 24.1847C39.6824 24.2218 39.7777 24.259 39.8759 24.2973C40.0991 24.4073 40.0991 24.4073 40.2135 24.6363C40.4041 24.7131 40.5949 24.7893 40.7858 24.8652C41.6766 25.4249 42.7002 26.108 43.0249 27.1615C43.0807 27.6634 43.0501 27.9522 42.8461 28.4134C42.4281 28.8208 42.1127 28.9695 41.5298 29.0215C40.37 29.0013 39.3293 28.315 38.3679 27.7338C38.1339 27.5944 37.8999 27.455 37.6659 27.3158C37.5553 27.2497 37.4448 27.1836 37.3309 27.1155C36.8849 26.8525 36.4331 26.6009 35.9785 26.3532C35.8245 26.4592 35.8245 26.4592 35.6673 26.5673C31.6955 29.2748 31.6955 29.2748 29.4543 28.9857C29.0785 28.8419 28.8374 28.6677 28.6531 28.299C28.5891 27.9972 28.5891 27.9972 28.6531 27.6122C28.9196 27.2742 29.2382 27.0007 29.5616 26.718C29.7417 26.5544 29.9217 26.3908 30.1017 26.2271C30.1883 26.1494 30.2749 26.0718 30.3641 25.9918C32.5682 24.0113 34.3707 21.3832 34.9049 18.4398C34.9478 18.214 35.0044 17.9909 35.0628 17.7687C35.4757 17.4934 35.7318 17.4609 36.2074 17.5397Z" fill="#1B6A46"/>
<path d="M40.1133 30.2019C40.1985 30.2009 40.2837 30.2 40.3715 30.199C43.2174 30.1757 43.2174 30.1757 44.2196 31.046C44.6336 31.5019 44.6196 31.8739 44.6045 32.4687C44.5629 32.7629 44.5629 32.7629 44.3483 33.0634C43.8435 33.3901 43.4098 33.3383 42.8246 33.3281C39.3227 33.3055 35.9962 34.0389 32.6752 35.1161C31.5699 35.4715 30.386 35.8306 29.2754 35.324C28.4927 34.5614 28.0662 33.9513 28.0449 32.8559C28.0466 32.4219 28.0569 32.0947 28.3096 31.7328C28.6557 31.492 28.8881 31.4876 29.2968 31.5539C29.6749 31.6253 29.6749 31.6253 30.0265 31.5039C30.2464 31.5063 30.4663 31.5088 30.6862 31.5114C31.1072 31.499 31.5057 31.4075 31.9156 31.3156C32.1023 31.2756 32.2891 31.2356 32.4759 31.1956C32.5724 31.1746 32.6688 31.1536 32.7682 31.132C35.2286 30.6005 37.5924 30.2192 40.1133 30.2019Z" fill="#1B6945"/>
</svg>
