<svg width="160" height="85" viewBox="0 0 160 85" fill="none" xmlns="http://www.w3.org/2000/svg">
<path d="M25.2497 21.3111C25.87 21.9802 26.2288 22.5751 26.5556 23.4283C26.5108 24.5251 26.0583 25.3083 25.5069 26.2407C25.3391 26.2407 25.1713 26.2407 24.9985 26.2407C24.9985 26.4085 24.9985 26.5763 24.9985 26.7491C25.3917 26.7255 25.3917 26.7255 25.7929 26.7015C29.2589 26.7199 32.2426 27.8849 34.7544 30.2447C37.3796 33.0364 38.1282 36.5049 38.0354 40.2687C37.6158 45.9694 35.1062 50.7295 31.3541 54.9681C31.1984 55.1451 31.0428 55.322 30.8824 55.5043C27.0881 59.5495 21.7169 62.038 16.1969 62.4012C12.5244 62.4726 9.32503 61.8119 6.18583 59.7984C6.02263 59.7023 5.85943 59.6063 5.69129 59.5074C2.8868 57.7279 1.15529 54.4017 0.370439 51.2659C-0.916227 44.2625 1.25809 37.3331 5.20071 31.5496C6.8004 29.35 8.6014 27.1267 10.7301 25.4145C11.3627 24.9045 11.7381 24.418 12.1442 23.7143C13.2772 21.7842 15.0053 20.568 17.1175 19.8851C19.7487 19.3334 23.0893 19.5624 25.2497 21.3111ZM15.5922 35.9012C15.4818 36.0253 15.3714 36.1494 15.2577 36.2772C12.0984 39.8357 9.78095 44.3439 9.92671 49.1984C10.0974 50.8118 10.7636 51.9011 12.033 52.9343C13.258 53.519 14.5096 53.5638 15.8464 53.4427C15.9303 53.3589 16.0142 53.275 16.1006 53.1885C16.3212 53.1997 16.5417 53.2108 16.7689 53.2223C18.7202 53.1454 21.1145 51.7136 22.5297 50.3702C25.3824 47.1788 27.7782 43.6177 27.5407 39.1267C27.3038 37.6105 26.7135 36.2831 25.5685 35.2399C24.2899 34.3547 22.9693 34.0295 21.4393 33.8674C21.1513 33.8343 20.8632 33.8012 20.5664 33.7671C18.1783 33.6155 17.1092 34.0867 15.5922 35.9012Z" fill="#1B6946"/>
<path d="M131.106 13.8315C132.546 15.3745 132.681 16.9789 132.622 19.0172C132.256 22.6927 130.219 26.1676 128.286 29.2498C127.976 29.772 127.739 30.2916 127.499 30.8486C126.353 33.1678 123.918 34.48 121.604 35.3929C119.926 35.9571 118.225 36.446 116.519 36.9182C116.475 37.1312 116.43 37.3442 116.383 37.5636C116.217 38.3531 116.049 39.1424 115.882 39.9316C115.809 40.2733 115.737 40.6151 115.665 40.9569C115.561 41.448 115.457 41.9389 115.353 42.4298C115.29 42.7253 115.227 43.0209 115.163 43.3254C114.994 44.0365 114.994 44.0365 114.74 44.545C121.035 43.0136 126.814 40.6441 131.914 36.5697C134.07 34.8733 134.07 34.8733 135.284 34.9003C135.841 35.1387 135.841 35.1387 136.349 35.9013C136.416 39.2473 133.636 42.7285 131.519 45.0534C131.372 45.2209 131.225 45.3884 131.074 45.5609C127.166 49.7567 121.847 52.8546 116.31 54.2552C115.535 54.4209 115.535 54.4209 114.994 54.714C114.399 54.6422 113.806 54.5583 113.215 54.4598C113.131 54.6275 113.047 54.7953 112.96 54.9682C112.96 54.8004 112.96 54.6326 112.96 54.4598C112.635 54.444 112.31 54.4283 111.975 54.4121C110.011 54.1805 108.423 53.41 107.145 51.8857C104.67 48.3658 104.952 44.5194 105.588 40.4774C105.797 39.3896 106.031 38.3078 106.291 37.2311C106.63 35.7788 106.62 34.9146 105.937 33.5498C105.505 32.3716 105.506 31.5113 105.842 30.3084C106.392 29.4285 106.636 29.1117 107.622 28.783C107.987 28.7544 108.354 28.7379 108.721 28.7294C114.989 28.6935 114.989 28.6935 120.364 25.9578C121.175 24.9538 121.895 23.8889 122.367 22.6817C122.283 22.5139 122.199 22.3461 122.112 22.1732C120.083 22.2384 118.216 22.4731 116.249 22.9518C111.533 24.0659 111.533 24.0659 109.528 22.8882C107.697 21.5189 106.312 19.9456 105.872 17.6607C105.821 16.6912 106.112 16.1407 106.605 15.3091C107.903 14.4437 109.268 14.5281 110.783 14.5941C113.854 14.6153 116.851 13.94 119.859 13.3816C128.324 11.8134 128.324 11.8134 131.106 13.8315Z" fill="#1B6945"/>
<path d="M55.6613 12.4034C57.367 12.6198 58.9767 13.2063 60.5899 13.7837C60.8278 13.8663 61.0657 13.9489 61.3109 14.034C62.1447 14.4253 62.4366 15.0294 62.8779 15.8175C63.4413 17.636 63.129 19.4741 62.6724 21.2784C62.6221 21.4862 62.5718 21.694 62.52 21.908C62.3505 22.6061 62.1773 23.3032 62.004 24.0004C61.8805 24.5051 61.7572 25.0099 61.6342 25.5147C61.3585 26.6445 61.0814 27.7739 60.8037 28.9033C60.3341 30.8178 59.8738 32.7345 59.4145 34.6516C52.9268 61.7219 52.9268 61.7219 48.8956 69.9674C48.8124 70.1407 48.7292 70.3139 48.6436 70.4925C48.0707 71.6846 47.476 72.8637 46.8618 74.035C46.742 74.2649 46.742 74.2649 46.6198 74.4995C45.6653 76.3116 44.6046 77.9656 43.3503 79.5803C43.2312 79.7342 43.1122 79.8881 42.9895 80.0466C42.1286 81.1209 42.1286 81.1209 41.2688 81.4075C41.2688 81.5753 41.2688 81.7431 41.2688 81.916C36.2657 84.951 36.2657 84.951 34.5686 84.5823C33.974 84.3329 33.5804 84.1633 33.1336 83.6955C32.8873 82.9835 32.8873 82.9835 32.8794 82.1702C33.2856 81.475 33.2856 81.475 33.9122 80.7084C42.6277 69.3454 46.1235 53.651 49.404 39.9689C49.2147 40.0749 49.0253 40.181 48.8303 40.2902C48.5805 40.4287 48.3307 40.5671 48.0733 40.7097C47.8263 40.8472 47.5793 40.9847 47.3248 41.1264C45.8822 41.8662 44.4188 42.1767 42.7942 42.0027C41.4703 41.5414 40.4659 40.9454 39.7435 39.7146C38.9845 37.8835 38.8078 36.4558 39.4257 34.5507C40.0572 33.6981 40.8602 33.3926 41.8766 33.1713C42.2004 33.1232 42.5241 33.075 42.8577 33.0254C45.1475 32.6489 47.2384 31.8826 49.404 31.071C49.912 30.9001 50.4204 30.7304 50.9294 30.5625C50.9568 30.3497 50.9843 30.1368 51.0127 29.9175C51.2302 28.3081 51.4815 26.7259 51.8211 25.1374C52.5485 21.7352 53.1512 18.5254 52.9737 15.0211C52.9633 14.8002 52.953 14.5793 52.9423 14.3517C52.9286 14.1609 52.9149 13.9701 52.9008 13.7735C52.9632 13.2753 52.9632 13.2753 53.3119 12.8341C54.0406 12.2681 54.7696 12.3819 55.6613 12.4034Z" fill="#1B6A46"/>
<path d="M87.0292 49.3752C87.2809 49.6269 87.2809 49.6269 87.5377 49.8837C88.0635 50.05 88.594 50.2016 89.1266 50.3445C90.9244 50.8856 91.9723 51.4267 92.9717 53.0615C93.6838 54.6442 93.6651 56.4948 93.2081 58.151C92.9659 58.7321 92.6899 59.2576 92.368 59.7985C92.2018 60.0841 92.2018 60.0841 92.0323 60.3754C89.015 65.2146 83.882 67.5697 78.5127 68.8552C77.6547 69.074 77.4184 69.1538 76.7808 69.8086C76.5503 70.4794 76.5503 70.4794 76.7649 71.175C77.0783 71.826 77.0783 71.826 77.8771 72.0012C85.8469 72.6381 93.7257 69.3506 99.9947 64.6287C100.367 64.3635 100.742 64.1033 101.123 63.8502C101.275 63.7476 101.426 63.645 101.583 63.5393C102.029 63.3576 102.029 63.3576 102.562 63.4063C103.045 63.6118 103.045 63.6118 103.554 64.3745C103.554 67.8938 100.877 71.101 98.515 73.5137C93.4428 78.4706 86.358 81.2204 79.2907 81.2166C76.1274 81.1692 73.0194 80.2074 70.6556 78.0331C68.4987 75.6965 67.6138 73.0011 67.6515 69.8483C67.8892 67.1464 68.8005 64.7474 70.7589 62.8492C71.5488 62.3581 72.1446 62.3303 73.0469 62.3566C76.6639 62.4102 80.1922 60.77 82.9616 58.5273C83.1294 58.5273 83.2972 58.5273 83.4701 58.5273C83.6379 58.024 83.8057 57.5206 83.9785 57.002C83.6635 57.0924 83.6635 57.0924 83.3421 57.1846C82.5513 57.4105 81.76 57.6343 80.9683 57.857C80.6279 57.9531 80.2877 58.05 79.9477 58.1477C74.762 59.6362 74.762 59.6362 73.0787 58.9881C71.8047 58.2492 71.0077 57.3743 70.3825 56.0417C70.1729 55.1449 70.436 54.5443 70.7857 53.7169C72.2988 52.0572 75.0038 51.7487 77.1059 51.24C77.6559 51.1069 78.205 50.9705 78.754 50.8336C80.972 50.2866 83.0654 49.8459 85.3609 49.8678C85.8323 49.8712 85.8323 49.8712 86.3132 49.8748C86.6677 49.8792 86.6677 49.8792 87.0292 49.8837C87.0292 49.7159 87.0292 49.5481 87.0292 49.3752Z" fill="#1B6A45"/>
<path d="M157.195 1.83529C159.099 3.68832 159.886 5.75385 159.999 8.38257C160.011 9.50549 159.884 10.5857 159.715 11.6944C159.665 12.0209 159.665 12.0209 159.614 12.3539C159.116 15.4369 158.341 18.4603 157.593 21.49C157.434 22.1385 157.275 22.7869 157.117 23.4354C156.716 25.0734 156.311 26.7106 155.905 28.3473C155.679 29.255 155.455 30.1628 155.23 31.0706C154.892 32.4343 154.552 33.7973 154.208 35.1596C154.083 35.6561 153.959 36.1528 153.835 36.6496C150.905 48.3824 150.905 48.3824 146.2 51.4091C145.885 51.5839 145.568 51.7542 145.247 51.9176C145.048 52.0277 144.848 52.1378 144.643 52.2512C143.283 52.6076 141.933 52.6457 140.639 52.0765C140.403 51.872 140.403 51.872 140.162 51.6633C140.162 51.4956 140.162 51.3278 140.162 51.1549C139.827 51.2388 139.491 51.3227 139.145 51.4091C139.229 51.2413 139.313 51.0735 139.4 50.9007C139.568 50.9007 139.735 50.9007 139.908 50.9007C140.003 50.607 140.097 50.3134 140.194 50.0109C140.44 49.2637 140.703 48.5346 140.999 47.8058C142.242 44.7163 142.956 41.5459 143.674 38.3007C143.799 37.7463 143.925 37.192 144.051 36.6378C144.171 36.106 144.29 35.5742 144.41 35.0424C144.465 34.7974 144.52 34.5525 144.577 34.3001C144.851 33.0571 145.088 31.8258 145.247 30.5627C144.986 30.6878 144.986 30.6878 144.719 30.8154C143.922 31.1949 143.123 31.57 142.323 31.945C142.049 32.0763 141.775 32.2075 141.493 32.3428C137.92 34.0097 137.92 34.0097 135.92 33.3592C134.7 32.8908 134.11 32.2386 133.553 31.0711C132.863 29.3572 132.344 27.552 133.092 25.7801C134.165 24.4849 135.491 24.2716 137.064 23.9846C140.144 23.3795 143.067 22.4548 146 21.3341C146.518 21.1564 146.518 21.1564 147.026 21.1564C147.336 19.5614 147.643 17.9659 147.947 16.3698C148.159 15.2582 148.378 14.1489 148.608 13.041C149.339 9.44402 149.908 5.68695 148.864 2.09876C148.789 1.43308 148.953 1.11909 149.314 0.564164C151.935 -0.683891 154.944 0.316601 157.195 1.83529Z" fill="#1B6945"/>
<path d="M143.461 54.0069C145.606 55.2704 147.234 57.2238 147.916 59.6475C148.883 64.6608 147.501 69.2734 144.781 73.5087C143.929 74.7159 142.984 75.7858 141.942 76.8315C141.768 77.0117 141.593 77.192 141.414 77.3777C138.36 80.33 134.124 81.7377 129.942 81.7418C126.317 81.6767 123.527 80.3815 121.016 77.8007C118.379 74.6935 118.363 71.0217 118.553 67.1709C118.955 63.5802 121.016 60.1561 123.384 57.5104C123.564 57.2938 123.745 57.0772 123.931 56.854C129.26 50.6068 136.482 50.4279 143.461 54.0069ZM131.773 60.3069C131.689 60.5586 131.605 60.8102 131.519 61.0696C131.287 61.1831 131.287 61.1831 131.05 61.2989C129.349 62.1646 128.33 64.6808 127.705 66.4083C127.213 67.9966 127.213 69.8304 127.785 71.3815C128.394 72.2608 128.714 72.6762 129.739 73.0181C132.079 73.2487 133.457 72.7728 135.348 71.461C137.406 69.6328 138.93 66.8627 139.194 64.1242C139.276 62.594 139.006 61.3272 138.129 60.0527C137.201 59.1723 136.348 58.8257 135.094 58.6067C133.793 58.6893 132.72 59.4549 131.773 60.3069Z" fill="#1B6A46"/>
<path d="M80.4195 9.71615C82.7285 10.4015 85.0845 11.2877 86.3779 13.4342C87.2662 15.3528 87.2901 17.2515 86.648 19.2655C86.0612 20.7581 85.1116 21.8222 83.9787 22.9358C84.1314 22.9948 84.2841 23.0537 84.4414 23.1145C85.13 23.3815 85.8175 23.6512 86.505 23.921C86.7454 24.0137 86.9858 24.1064 87.2334 24.202C87.5763 24.3372 87.5763 24.3372 87.9261 24.4751C88.1378 24.5576 88.3495 24.6402 88.5676 24.7252C89.0632 24.9696 89.0632 24.9696 89.3174 25.4781C89.7406 25.6489 90.1644 25.8181 90.5885 25.9865C92.567 27.2296 94.8404 28.7469 95.5618 31.0869C95.6856 32.2016 95.6177 32.8431 95.1646 33.8675C94.2361 34.7722 93.5356 35.1025 92.241 35.2181C89.6649 35.1731 87.3536 33.6489 85.218 32.358C84.6984 32.0483 84.1787 31.7388 83.6589 31.4295C83.4134 31.2828 83.1678 31.136 82.9149 30.9848C81.9244 30.4005 80.9207 29.8417 79.9111 29.2915C79.5689 29.5269 79.5689 29.5269 79.2199 29.7671C70.3982 35.7805 70.3982 35.7805 65.4203 35.1386C64.5856 34.8191 64.0501 34.4321 63.6407 33.6133C63.4987 32.943 63.4987 32.943 63.6407 32.0879C64.2327 31.3372 64.9404 30.7296 65.6586 30.1018C66.0586 29.7385 66.4585 29.375 66.8582 29.0114C67.0506 28.839 67.243 28.6665 67.4411 28.4888C72.3365 24.09 76.34 18.2528 77.5266 11.7153C77.6219 11.2138 77.7475 10.7183 77.8773 10.2246C78.7944 9.61321 79.3632 9.541 80.4195 9.71615Z" fill="#1B6A46"/>
<path d="M89.0949 37.8398C89.2841 37.8377 89.4734 37.8356 89.6683 37.8334C95.9893 37.7816 95.9893 37.7816 98.2152 39.7147C99.1347 40.7272 99.1037 41.5534 99.0702 42.8746C98.9779 43.528 98.9779 43.528 98.5012 44.1954C97.3798 44.921 96.4167 44.8061 95.1168 44.7833C87.3389 44.733 79.9504 46.3621 72.5742 48.7546C70.1192 49.544 67.4898 50.3416 65.023 49.2163C63.2846 47.5226 62.3373 46.1675 62.29 43.7346C62.2938 42.7706 62.3166 42.0438 62.8779 41.24C63.6466 40.7052 64.1627 40.6955 65.0706 40.8428C65.9103 41.0012 65.9103 41.0012 66.6913 40.7316C67.1797 40.737 67.6681 40.7426 68.1566 40.7482C69.0917 40.7208 69.9767 40.5174 70.887 40.3135C71.3019 40.2245 71.7167 40.1357 72.1316 40.0469C72.3458 40.0003 72.5601 39.9537 72.7808 39.9057C78.2456 38.725 83.4958 37.8783 89.0949 37.8398Z" fill="#1B6945"/>
</svg>
