<svg width="160" height="160" viewBox="0 0 160 160" fill="none" xmlns="http://www.w3.org/2000/svg">
<path d="M109.434 5.33733C110.073 15.8695 106.059 28.0875 99.1941 36.0557C98.9272 36.3767 98.6604 36.6977 98.3855 37.0285C93.6729 42.51 87.1699 46.533 79.8808 47.3008C79.3707 47.3365 78.8603 47.3691 78.3495 47.3922C77.8375 45.8564 78.4788 44.9568 79.1494 43.5753C79.3454 43.1666 79.3454 43.1666 79.5454 42.7497C82.9638 35.7926 87.3284 29.2379 92.2459 23.2564C93.1045 22.1634 93.9549 21.0642 94.8057 19.9651C84.8962 26.2287 79.7531 35.2279 75.7896 45.9294C75.5482 45.8087 75.3069 45.6881 75.0582 45.5637C73.473 37.3208 75.4921 27.6673 80.1779 20.6965C82.5532 17.4334 85.3167 14.6554 88.5889 12.2855C89.0478 11.9497 89.0478 11.9497 89.516 11.607C95.0785 7.80639 102.679 5.1726 109.434 5.33733Z" fill="#4E953B"/>
<path d="M65.3861 26.0677C69.5747 30.5436 71.3826 36.0122 71.3201 42.044C71.3184 42.348 71.3168 42.6521 71.3151 42.9653C71.3108 43.7096 71.3042 44.4538 71.2972 45.1981C70.9352 45.3791 70.9352 45.3791 70.5658 45.5638C70.4669 45.3579 70.3681 45.1521 70.2662 44.94C67.2571 38.7517 63.5918 32.1474 57.0351 29.1075C57.2557 29.3281 57.4763 29.5487 57.7037 29.776C58.5779 30.6503 59.4521 31.5245 60.3264 32.3988C60.5955 32.6609 60.8647 32.923 61.142 33.193C61.8054 33.8783 62.119 34.4677 62.5205 35.3243C62.7166 35.5808 62.9127 35.8372 63.1148 36.1014C63.6176 36.7871 63.6176 36.7871 63.6176 37.5185C63.859 37.5185 64.1003 37.5185 64.349 37.5185C64.4697 37.8805 64.5904 38.2426 64.7147 38.6156C64.9561 38.8569 65.1974 39.0983 65.4461 39.347C66.0009 40.3418 66.4701 41.379 66.9546 42.4096C67.0908 42.6906 67.2271 42.9716 67.3674 43.261C67.4961 43.5335 67.6248 43.806 67.7574 44.0867C67.9343 44.4589 67.9343 44.4589 68.1147 44.8386C68.3717 45.5638 68.3717 45.5638 68.3717 47.0265C62.3052 46.6033 56.7444 42.7507 52.8296 38.3099C48.5393 33.1214 45.2173 26.4184 45.3329 19.5995C52.7113 18.4852 59.9535 20.9998 65.3861 26.0677Z" fill="#50963B"/>
<path d="M96.6667 43.3333H63.3333C44.9238 43.3333 30 58.2572 30 76.6666V106.667C30 125.076 44.9238 140 63.3333 140H96.6667C115.076 140 130 125.076 130 106.667V76.6666C130 58.2572 115.076 43.3333 96.6667 43.3333Z" fill="white" stroke="#4E953B" stroke-width="7"/>
<path d="M63.3334 94.6667C67.7517 94.6667 71.3334 91.085 71.3334 86.6667C71.3334 82.2484 67.7517 78.6667 63.3334 78.6667C58.9151 78.6667 55.3334 82.2484 55.3334 86.6667C55.3334 91.085 58.9151 94.6667 63.3334 94.6667Z" fill="#4E953B"/>
<path d="M96.6666 94.6667C101.085 94.6667 104.667 91.085 104.667 86.6667C104.667 82.2484 101.085 78.6667 96.6666 78.6667C92.2483 78.6667 88.6666 82.2484 88.6666 86.6667C88.6666 91.085 92.2483 94.6667 96.6666 94.6667Z" fill="#4E953B"/>
<path d="M63.3334 108C68.6667 114.667 74.6667 118 80 118C85.3334 118 91.3334 114.667 96.6667 108" stroke="#4E953B" stroke-width="7" stroke-linecap="round"/>
</svg>
